<svg fill="none" height="50" viewBox="0 0 177 50" width="177" xmlns="http://www.w3.org/2000/svg" xmlns:xlink="http://www.w3.org/1999/xlink"><linearGradient id="a"><stop offset="0" stop-color="#95c11f"/><stop offset="1" stop-color="#063"/></linearGradient><linearGradient id="b" gradientUnits="userSpaceOnUse" x1="18.849" x2="18.849" xlink:href="#a" y1="18.1802" y2="38.8364"/><linearGradient id="c" gradientUnits="userSpaceOnUse" x1="33.3475" x2="33.3475" xlink:href="#a" y1="20.8188" y2="49.5932"/><clipPath id="d"><path d="m4.34998 0h50.75v28.9855h-50.75z"/></clipPath><g clip-path="url(#d)"><path d="m33.4211 16.6233-4.6372-5.4855s-.0977 0-.1465 0l-4.6373 5.4855-1.8549 13.2727h6.297.5369 6.297z" fill="#99c29e"/><path d="m30.7364 29.7981h-3.8074v-3.6733c0-1.0285.8298-1.9101 1.9037-1.9101 1.0251 0 1.9037.8326 1.9037 1.9101z" fill="#fff"/><g fill="#99c29e"><path d="m33.1922 1.65108-3.7248 4.14729c-.1648.19749-.1978.46081-.0659.6583l-.2637.26332c-.3297-.16458-.7252-.16458-1.0548 0l-.2308-.23041c.1319-.19749.0989-.49372-.0659-.69121l-3.6918-4.14729c-.2308-.2304-.5934-.26332-.8241-.03291l-.6263.62538c-.2307.23041-.2307.62539.033.82288l4.1533 3.68647c.1977.16458.4615.19749.6592.06583l.2308.23041c-.1648.32915-.1978.72413 0 1.02036l-.2308.29624c-.1977-.09875-.4615-.09875-.6592.06583l-4.1533 3.71943c-.2308.2304-.2637.5924-.033.8228l.6263.6254c.2307.2304.6263.2304.8241-.0329l3.6918-4.14728c.1648-.19749.1978-.46081.0659-.69122l.2308-.2304c.3296.19749.7251.19749 1.0548 0l.2307.2304c-.1319.19749-.0989.46081.0659.6583l3.6918 4.1473c.2308.2304.5934.2633.8241.0329l.6263-.6254c.2307-.2304.2307-.6254-.033-.8229l-4.0873-3.68643c-.1978-.16458-.4615-.19749-.6922-.06583l-.2308-.23041c.1978-.32915.1978-.72413 0-1.05328l.2308-.2304c.1977.13166.4944.13166.6922-.06583l4.1533-3.71939c.2307-.23041.2637-.59247.0329-.82288l-.6263-.62538c-.2307-.23041-.6263-.23041-.824.03291zm-4.2522 6.25385c-.1648.16457-.4615.16457-.6263 0-.1648-.16458-.1648-.46081 0-.62539.1648-.16457.4615-.16457.6263 0 .1978.19749.1978.46081 0 .62539z"/><path d="m10.3054 12.0617-2.39185-7.24859c-.19525-.58773-1.07389-.58773-1.26915 0l-2.14779 7.34659c-.34169 1.0775 0 2.3019.78102 3.0855.48813.4898 1.07389.7347 1.65965.8326l.19526 4.2121 1.4644-.049-.19525-4.261c.43932-.147.87864-.3918 1.22033-.7837.78098-.8326 1.02508-2.008.68338-3.1345z"/><path d="m16.6021 16.8603-2.0502-6.22c-.1952-.5388-.9274-.5388-1.0739 0l-1.9037 6.269c-.2929.9306 0 1.9591.6834 2.6448.3905.3918.9274.6367 1.4644.7346l.1952 3.6243 1.1716-.0489-.1953-3.6733c.3905-.1469.7322-.3429 1.0739-.6367.6834-.7347.9275-1.7632.6346-2.6938z"/><path d="m48.4198 20.7574 2.3919-7.2486c.1952-.5878 1.0739-.5878 1.2691 0l2.1966 7.2975c.3417 1.0775 0 2.302-.781 3.0856-.4881.4898-1.0739.7347-1.6597.8326l-.1952 4.212h-1.5132l.1952-4.261c-.4393-.1469-.8786-.3918-1.2203-.7836-.781-.8326-1.0251-2.0081-.6834-3.1345z"/><path d="m42.1228 21.9328 2.0502-6.2201c.1953-.5387.9275-.5387 1.0739 0l1.9037 6.2691c.2929.9306 0 1.9591-.6834 2.6448-.3905.3918-.9274.6367-1.4644.7346l-.1952 3.6243-1.2204-.049.1953-3.6732c-.3905-.147-.7322-.3429-1.0739-.6367-.6346-.7347-.8786-1.7632-.5858-2.6938z"/></g></g><path d="m4.43566 37.0671c-2.40135-1.4028-4.43566-4.9632-4.43566-7.7751v-10.3479c7.38447-.585 11.7579 1.3902 17.2201 3.875 4.9147 2.2394 17.2174 6.1664 28.4549 6.3723-1.8041.3523-6.5209 2.0095-8.3375 2.3303-9.8605 1.7425-21.3875 2.8986-28.6375 8.6957z" fill="url(#b)"/><path d="m58 29.0483c0 2.8141-2.0381 6.3774-4.4501 7.7813l-20.7795 12.119c-1.1468.6674-2.7673 1.0514-4.4501 1.0514-1.6766 0-3.3033-.384-4.4501-1.0514l-15.17019-8.7312c4.68689-4.6776 13.43749-6.3404 22.67429-7.9647 10.4084-1.832 21.1223-3.7269 26.6257-10.5136z" fill="url(#c)"/><path d="m86.2441 17.9c0 1.3693-.234 2.626-.702 3.77s-1.118 2.132-1.95 2.964-1.8286 1.482-2.99 1.95c-1.144.4507-2.4093.676-3.796.676-1.3693 0-2.6346-.2253-3.796-.676-1.1613-.468-2.158-1.118-2.99-1.95s-1.482-1.82-1.95-2.964-.702-2.4007-.702-3.77.234-2.626.702-3.77 1.118-2.132 1.95-2.964 1.8287-1.47333 2.99-1.924c1.1614-.468 2.4267-.702 3.796-.702 1.3867 0 2.652.234 3.796.702 1.1614.45067 2.158 1.092 2.99 1.924s1.482 1.82 1.95 2.964.702 2.4007.702 3.77zm-5.954 0c0-1.4733-.052-2.7647-.156-3.874s-.2946-2.028-.572-2.756c-.26-.7453-.6153-1.3-1.066-1.664-.4506-.38133-1.014-.572-1.69-.572s-1.2393.19067-1.69.572c-.4506.364-.8146.9187-1.092 1.664-.26.728-.442 1.6467-.546 2.756s-.156 2.4007-.156 3.874.052 2.7647.156 3.874c.104 1.092.286 2.0107.546 2.756.2774.7453.6414 1.3087 1.092 1.69.4507.364 1.014.546 1.69.546s1.2394-.182 1.69-.546c.4507-.3813.806-.9447 1.066-1.69.2774-.7453.468-1.664.572-2.756.104-1.1093.156-2.4007.156-3.874zm16.5468 1.664c.2773-.104.4853-.2687.624-.494.156-.2427.234-.5113.234-.806 0-.4853-.1473-.858-.442-1.118-.2773-.2773-.6933-.416-1.248-.416-.6067 0-1.144.2687-1.612.806-.4507.5373-.676 1.3433-.676 2.418v4.212c0 .4333.0347.7887.104 1.066s.182.52.338.728c.156.1907.3553.364.598.52.2427.1387.5373.2947.884.468v.052h-8.268v-.052c.2773-.1907.4853-.364.624-.52.156-.156.2687-.3293.338-.52.0867-.1907.1387-.416.156-.676.0173-.2773.026-.6327.026-1.066v-7.202c0-.4507-.0173-.8147-.052-1.092-.0173-.2947-.0693-.5373-.156-.728s-.2253-.3553-.416-.494c-.1733-.156-.4073-.3293-.702-.52v-.052h6.526v4.16c.156-.5893.3467-1.144.572-1.664.2253-.5373.494-1.0053.806-1.404.3293-.416.7107-.7453 1.144-.988.4507-.2427.962-.364 1.534-.364.9013 0 1.6033.2773 2.106.832.5201.5373.7801 1.2047.7801 2.002 0 1.0227-.286 1.8027-.8581 2.34-.5547.5373-1.222.806-2.002.806-.4507 0-.7713-.078-.962-.234zm18.9601 8.164c0 .9187-.243 1.6987-.728 2.34-.468.6587-1.092 1.196-1.872 1.612s-1.682.7193-2.704.91c-1.006.208-2.046.312-3.12.312-.78 0-1.569-.0433-2.366-.13-.78-.0693-1.482-.208-2.106-.416-.624-.1907-1.136-.4507-1.534-.78-.382-.3293-.572-.754-.572-1.274 0-.5027.26-.9273.78-1.274.537-.3467 1.343-.5373 2.418-.572-.815-.1907-1.474-.5633-1.976-1.118-.503-.5547-.754-1.2567-.754-2.106 0-.884.294-1.6293.884-2.236.606-.6067 1.317-1.04 2.132-1.3-.85-.3467-1.491-.832-1.924-1.456-.434-.6413-.65-1.3607-.65-2.158 0-1.248.528-2.2707 1.586-3.068 1.057-.7973 2.565-1.196 4.524-1.196 1.733 0 3.111.3293 4.134.988.138-.2253.286-.4593.442-.702.173-.26.364-.494.572-.702s.442-.3727.702-.494c.277-.1387.598-.208.962-.208.728 0 1.291.1907 1.69.572.398.364.598.858.598 1.482 0 .3987-.078.7367-.234 1.014-.139.26-.33.4767-.572.65-.226.1733-.486.2947-.78.364-.278.0693-.555.104-.832.104v-.052c.173-.2947.26-.5893.26-.884 0-.3813-.113-.7107-.338-.988-.208-.2947-.555-.442-1.04-.442-.243 0-.46.052-.65.156-.174.0867-.338.1993-.494.338 1.144.7453 1.716 1.768 1.716 3.068 0 1.2653-.529 2.2967-1.586 3.094-1.058.78-2.574 1.17-4.55 1.17-1.196 0-2.236-.156-3.12-.468-.33.1213-.59.2687-.78.442-.174.156-.26.364-.26.624 0 .5893.355.884 1.066.884h5.98c1.525 0 2.756.3293 3.692.988s1.404 1.6293 1.404 2.912zm-7.982-13.494c-.434 0-.737.3207-.91.962-.174.624-.26 1.586-.26 2.886 0 1.3173.086 2.288.26 2.912.173.624.476.936.91.936.45 0 .762-.312.936-.936.173-.624.26-1.5947.26-2.912 0-1.3-.087-2.262-.26-2.886-.174-.6413-.486-.962-.936-.962zm-.442 18.226c.658 0 1.282-.052 1.872-.156.589-.0867 1.109-.2253 1.56-.416.45-.1907.806-.4333 1.066-.728s.39-.6413.39-1.04c0-.5547-.191-.9533-.572-1.196-.364-.2253-.902-.338-1.612-.338h-4.654c-.624 0-1.136.13-1.534.39-.382.26-.572.6847-.572 1.274 0 .3987.104.7367.312 1.014.225.2773.52.5027.884.676s.788.3033 1.274.39c.502.0867 1.031.13 1.586.13zm24.304-6.422c-.347.364-.823.6587-1.43.884s-1.239.338-1.898.338c-1.144 0-2.002-.208-2.574-.624s-.927-.988-1.066-1.716c-.017-.052-.035-.1473-.052-.286 0-.1387 0-.2253 0-.26-.243.884-.719 1.5773-1.43 2.08-.711.4853-1.621.728-2.73.728-.503 0-.988-.0607-1.456-.182-.468-.1387-.884-.338-1.248-.598-.347-.2773-.633-.624-.858-1.04-.208-.416-.312-.9013-.312-1.456 0-.7453.165-1.3433.494-1.794.329-.468.771-.8493 1.326-1.144s1.187-.52 1.898-.676c.728-.1733 1.482-.3293 2.262-.468l1.976-.364v-2.756c0-.2947-.026-.5893-.078-.884s-.147-.5547-.286-.78c-.121-.2253-.295-.4073-.52-.546s-.503-.208-.832-.208c-.537 0-.953.182-1.248.546s-.442.8233-.442 1.378c0 1.092.425 1.638 1.274 1.638.173 0 .347-.026.52-.078-.295.5547-.711.962-1.248 1.222-.52.26-1.127.39-1.82.39-.728 0-1.352-.1993-1.872-.598-.503-.3987-.754-.9447-.754-1.638 0-.52.139-.988.416-1.404s.667-.7627 1.17-1.04c.503-.2947 1.101-.5113 1.794-.65.711-.156 1.491-.234 2.34-.234 2.253 0 3.935.3553 5.044 1.066 1.127.6933 1.69 1.8633 1.69 3.51 0 .728-.009 1.4907-.026 2.288-.017.78-.026 1.6553-.026 2.626 0 .884.078 1.56.234 2.028s.563.702 1.222.702h.26c.104 0 .199-.0173.286-.052zm-8.034-5.876c-.728.156-1.248.4853-1.56.988-.312.4853-.468 1.144-.468 1.976 0 .624.104 1.1353.312 1.534.225.3987.572.598 1.04.598.555 0 .953-.2427 1.196-.728.26-.5027.399-1.0747.416-1.716v-2.886zm14.33-2.756c.312-1.1613.858-2.0453 1.638-2.652.797-.624 1.75-.936 2.86-.936.728 0 1.352.1213 1.872.364s.944.572 1.274.988c.346.3987.598.8753.754 1.43.156.5373.234 1.1093.234 1.716v5.85c0 .4333.008.7887.026 1.066.017.26.06.4853.13.676.086.1907.199.364.338.52.156.156.372.3293.65.52v.052h-7.488v-.052c.277-.1907.485-.364.624-.52.156-.156.268-.3293.338-.52.086-.1907.138-.416.156-.676.017-.2773.026-.6327.026-1.066v-6.084c0-.52-.13-.9533-.39-1.3-.243-.364-.624-.546-1.144-.546-.555 0-1.014.2427-1.378.728-.347.468-.52 1.2567-.52 2.366v4.836c0 .4333.008.7887.026 1.066.017.26.06.4853.13.676.086.1907.199.364.338.52.156.156.372.3293.65.52v.052h-7.488v-.052c.277-.1907.485-.364.624-.52.156-.156.268-.3293.338-.52.086-.1907.138-.416.156-.676.017-.2773.026-.6327.026-1.066v-7.202c0-.4507-.018-.8147-.052-1.092-.018-.2947-.07-.5373-.156-.728-.087-.1907-.226-.3553-.416-.494-.174-.156-.408-.3293-.702-.52v-.052h6.526zm17.482-3.588c1.075 0 2.002.1647 2.782.494.797.312 1.456.7453 1.976 1.3s.91 1.2047 1.17 1.95c.26.728.39 1.5167.39 2.366h-8.06c0 1.612.381 2.8427 1.144 3.692s1.742 1.274 2.938 1.274c.763 0 1.456-.156 2.08-.468.624-.3293 1.144-.8667 1.56-1.612l.156.078c-.399 1.3867-1.161 2.4613-2.288 3.224-1.109.7627-2.409 1.144-3.9 1.144-.953 0-1.855-.1473-2.704-.442-.832-.312-1.569-.754-2.21-1.326-.624-.572-1.118-1.274-1.482-2.106s-.546-1.7767-.546-2.834c0-1.04.182-1.9673.546-2.782.381-.832.884-1.5427 1.508-2.132.641-.5893 1.387-1.04 2.236-1.352s1.751-.468 2.704-.468zm1.404 5.59c0-.7453-.017-1.43-.052-2.054-.017-.6413-.078-1.1873-.182-1.638s-.251-.806-.442-1.066c-.173-.26-.416-.39-.728-.39-.607 0-1.04.4767-1.3 1.43-.26.936-.407 2.1753-.442 3.718zm6.485-2.522c-.208-.3987-.381-.7193-.52-.962-.138-.26-.277-.4853-.416-.676-.138-.208-.286-.39-.442-.546-.156-.1733-.338-.364-.546-.572v-.052h7.67v.052c-.277.1733-.468.3467-.572.52-.086.1733-.13.39-.13.65 0 .4333.122.91.364 1.43l2.626 5.434 2.028-5.044c.174-.416.26-.806.26-1.17 0-.4507-.13-.8233-.39-1.118-.26-.312-.598-.546-1.014-.702v-.052h3.978v.052c-.225.1733-.424.3467-.598.52-.173.1733-.338.364-.494.572-.138.208-.286.4507-.442.728-.138.2773-.294.6153-.468 1.014l-5.304 12.844c-.433 1.0747-.936 1.8633-1.508 2.366-.554.5027-1.248.754-2.08.754-.78 0-1.438-.2167-1.976-.65-.52-.4333-.78-1.0573-.78-1.872 0-.7453.226-1.326.676-1.742.451-.3987 1.006-.598 1.664-.598.26 0 .494.0347.702.104-.208.1387-.372.3033-.494.494-.104.1907-.156.4333-.156.728 0 .416.139.7627.416 1.04.295.2773.659.416 1.092.416.503 0 .919-.1387 1.248-.416.33-.2773.624-.7107.884-1.3l.468-1.04z" fill="#141514"/><path d="m67.0498 46v-7.1533h2.0215l2.7148 4.2334.5176 1.001h.0977l-.0586-1.128v-4.1064h1.2011v7.1533h-1.4648l-3.3105-5.1416-.4786-.9619h-.0976l.0586 1.0791v5.0244zm14.6484-1.7529h-2.6464l-.5323 1.7529h-1.2646l2.4072-7.1533h1.7236l2.4024 7.1533h-1.5479zm-.2685-.9082-.752-2.5-.2539-1.0498h-.0976l-.2539 1.0498-.7569 2.5zm8.4668 2.6611h-1.4697v-6.1914h-2.2706l.1758-.9619h5.8887l-.1758.9619h-2.1484zm7.4658-7.1533v4.5166c0 .3027.0439.5664.1318.791.0879.2214.2051.4053.3516.5518.1465.1432.3141.2506.5029.3222s.3858.1074.5909.1074c.2083 0 .4036-.0358.5859-.1074.1823-.0748.3402-.1839.4736-.3271.137-.1433.244-.3223.322-.5371.078-.2181.117-.472.117-.7618v-4.5556h1.207v4.4336c0 .3646-.061.7161-.181 1.0547-.121.3385-.303.6396-.547.9033-.244.2604-.552.4687-.9229.625-.3678.1562-.8024.2344-1.3037.2344-.4231 0-.8073-.0603-1.1523-.1807-.3451-.1205-.6397-.2979-.8838-.5322-.2441-.2344-.4329-.5241-.5664-.8692-.1302-.345-.1953-.7422-.1953-1.1914v-4.4775zm10.0977 4.4385v2.7148h-1.47v-7.1533h2.383c.43 0 .807.0504 1.133.1513.329.0977.604.2328.825.4053.225.1693.394.3679.508.5957.114.2279.171.4688.171.7227 0 .2278-.043.4427-.127.6445-.085.1986-.195.3825-.332.5518-.134.1692-.283.3239-.449.4638-.166.1368-.332.2572-.498.3614l2.041 3.2568h-1.719l-1.426-2.7148zm0-.9131h1.348c.107-.0586.206-.1319.297-.2198.092-.0911.171-.192.24-.3027.068-.1139.122-.2376.161-.3711.039-.1367.058-.2816.058-.4346 0-.1757-.029-.3385-.087-.4882-.056-.153-.14-.2832-.254-.3907-.111-.1106-.251-.1969-.42-.2588-.17-.0651-.366-.0976-.591-.0976h-.752zm11.787 1.875h-2.646l-.533 1.7529h-1.264l2.407-7.1533h1.724l2.402 7.1533h-1.548zm-.268-.9082-.752-2.5-.254-1.0498h-.098l-.254 1.0498-.757 2.5zm6.103 2.6611v-7.1533h1.47v6.1914h2.773l-.176.9619zm9.956-.8643c.176 0 .34-.0211.493-.0634.157-.0424.292-.1042.406-.1856.117-.0846.208-.1872.273-.3076.068-.1237.102-.2653.102-.4248 0-.1921-.047-.3548-.141-.4883-.095-.1367-.218-.2555-.371-.3564s-.329-.1921-.528-.2735c-.195-.0813-.397-.166-.605-.2539-.205-.0879-.407-.1839-.605-.2881-.196-.1074-.37-.2343-.523-.3808-.153-.1498-.277-.3272-.371-.5322-.094-.2084-.142-.4558-.142-.7422 0-.3223.062-.612.186-.8692.124-.2571.298-.4752.522-.6543.225-.1823.495-.3222.811-.4199.316-.0976.667-.1465 1.055-.1465.107 0 .232.0049.376.0147.146.0065.301.0211.463.0439.166.0195.337.0472.513.083.179.0326.357.0733.532.1221l-.224 1.0498-.088.0439c-.163-.0716-.324-.1318-.484-.1806-.156-.0521-.306-.0944-.449-.127-.143-.0325-.278-.0553-.405-.0683-.124-.0131-.233-.0196-.327-.0196-.166 0-.318.0196-.454.0586-.137.0391-.254.0961-.352.1709-.097.0716-.172.1628-.224.2735-.053.1074-.079.2311-.079.3711 0 .192.048.3564.142.4931.094.1335.218.2523.371.3565.156.1041.334.1985.532.2832.199.0846.401.1709.606.2588s.407.1839.605.288c.199.1042.375.2295.528.376.156.1465.281.319.376.5176.094.1986.141.4362.141.7129 0 .3157-.065.6103-.195.8838-.127.2702-.309.5045-.547.7031s-.524.3548-.859.4688c-.336.1139-.71.1709-1.123.1709-.163 0-.336-.0098-.518-.0293-.179-.0196-.365-.0489-.557-.0879-.188-.0391-.379-.0879-.571-.1465s-.378-.127-.557-.2051l.22-1.0498.103-.0488c.358.1823.695.3287 1.01.4394.319.1107.63.166.933.166zm9.644.8643h-1.47v-6.1914h-2.271l.176-.9619h5.889l-.176.9619h-2.148zm9.067-.8643c.326 0 .619-.0716.879-.2148.264-.1432.487-.3369.669-.5811.182-.2441.322-.5273.42-.8496.097-.3255.146-.6689.146-1.0302 0-.3842-.053-.7439-.161-1.0791-.107-.3353-.259-.6267-.454-.8741s-.428-.441-.698-.581c-.267-.1432-.562-.2149-.884-.2149-.329 0-.625.0733-.889.2198-.26.1432-.481.3385-.664.5859-.179.2474-.317.5339-.415.8594-.094.3222-.141.6624-.141 1.0205 0 .3841.053.7438.161 1.0791.107.332.257.6217.449.8691.195.2442.426.4379.693.5811.271.14.567.2099.889.2099zm-.171.962c-.329 0-.644-.0359-.947-.1075s-.586-.1757-.85-.3125c-.26-.1399-.498-.3108-.713-.5127-.214-.2018-.398-.4313-.551-.6884-.153-.2605-.272-.5485-.357-.8643-.084-.3158-.127-.6575-.127-1.0254 0-.3776.044-.734.132-1.0693.091-.3353.218-.6446.381-.9278.163-.2864.36-.5419.591-.7666.231-.2278.486-.4215.766-.581.284-.1595.588-.2816.913-.3662.329-.0847.673-.127 1.031-.127.325 0 .638.0358.937.1074.303.0684.584.1726.845.3125.264.1368.503.306.718.5079.215.1985.398.428.551.6884.157.2605.277.5502.362.8692.084.3157.127.6575.127 1.0254 0 .3776-.044.734-.132 1.0693s-.213.6462-.376.9326c-.163.2832-.36.5388-.591.7666-.228.2246-.483.4167-.767.5762-.279.1595-.584.2816-.913.3662-.328.0846-.672.127-1.03.127zm9.331-2.8125v2.7148h-1.47v-7.1533h2.383c.43 0 .808.0504 1.133.1513.329.0977.604.2328.825.4053.225.1693.394.3679.508.5957.114.2279.171.4688.171.7227 0 .2278-.042.4427-.127.6445-.085.1986-.195.3825-.332.5518-.133.1692-.283.3239-.449.4638-.166.1368-.332.2572-.498.3614l2.041 3.2568h-1.719l-1.426-2.7148zm0-.9131h1.348c.107-.0586.207-.1319.298-.2198.091-.0911.171-.192.239-.3027.068-.1139.122-.2376.161-.3711.039-.1367.059-.2816.059-.4346 0-.1757-.03-.3385-.088-.4882-.056-.153-.14-.2832-.254-.3907-.111-.1106-.251-.1969-.42-.2588-.169-.0651-.366-.0976-.591-.0976h-.752zm7.905 3.6279v-7.1533h4.512l-.176.9619h-2.866v2.0264h2.515l-.161.913h-2.354v2.2901h3.096l-.176.9619z" fill="#838685"/></svg>